# Blender 4.2.0
# www.blender.org
mtllib mapleLeaf3.mtl
o Plane.002
v 0.059527 0.009105 0.050428
v 0.129532 0.009105 0.050428
v 0.059527 0.009105 -0.019576
v 0.129532 0.009105 -0.019576
v 0.068278 0.009105 0.050428
v 0.077028 0.009105 0.050428
v 0.085779 0.009105 0.050428
v 0.094530 0.009105 0.050428
v 0.103280 0.009105 0.050428
v 0.112333 0.007508 0.050641
v 0.120781 0.009105 0.050428
v 0.120781 0.009105 -0.019576
v 0.112031 0.009105 -0.019576
v 0.103280 0.009105 -0.019576
v 0.092819 0.013849 -0.020546
v 0.085779 0.009105 -0.019576
v 0.077028 0.009105 -0.019576
v 0.068278 0.009105 -0.019576
v 0.060631 0.011250 -0.009507
v 0.060631 0.011250 0.000493
v 0.059718 0.009515 0.010784
v 0.059527 0.009105 0.020426
v 0.061874 0.004551 0.028232
v 0.059527 0.009105 0.040428
v 0.129532 0.009105 0.040428
v 0.129834 0.007508 0.030639
v 0.129532 0.009105 0.020426
v 0.130318 0.006749 0.011283
v 0.130318 0.006749 0.001283
v 0.132447 0.002376 -0.008763
v 0.067859 0.009242 0.039733
v 0.066912 0.006232 0.029636
v 0.068315 0.004858 0.020654
v 0.068468 0.009515 0.010784
v 0.070410 0.013716 0.000044
v 0.071216 0.015322 -0.009572
v 0.076610 0.009242 0.039733
v 0.077304 0.009526 0.028520
v 0.076213 0.008336 0.019593
v 0.077197 0.009834 0.009351
v 0.078133 0.011250 0.000493
v 0.078133 0.011250 -0.009507
v 0.086055 0.009526 0.038521
v 0.086055 0.009526 0.028520
v 0.085757 0.009424 0.018993
v 0.085706 0.009336 0.009398
v 0.084424 0.010082 0.003073
v 0.084424 0.010082 -0.006928
v 0.094530 0.009105 0.040428
v 0.094530 0.009105 0.030427
v 0.094530 0.009105 0.020426
v 0.094530 0.009105 0.010426
v 0.093883 0.010039 0.003151
v 0.093174 0.010082 -0.006928
v 0.103583 0.007508 0.040640
v 0.103280 0.009105 0.030427
v 0.103280 0.009105 0.020426
v 0.103280 0.009105 0.010426
v 0.101925 0.010082 0.003073
v 0.101925 0.010082 -0.006928
v 0.112333 0.007508 0.040640
v 0.112333 0.007508 0.030639
v 0.112031 0.009105 0.020426
v 0.112031 0.009105 0.010426
v 0.112031 0.009109 0.000425
v 0.112031 0.009105 -0.009576
v 0.121084 0.007508 0.040640
v 0.121084 0.007508 0.030639
v 0.120781 0.009105 0.020426
v 0.120781 0.009109 0.010426
v 0.121636 0.007095 0.000712
v 0.121568 0.006749 -0.008718
vn 0.2046 0.9147 0.3485
vn -0.1946 0.9187 -0.3436
vn 0.2306 0.8808 -0.4134
vn 0.0997 0.9859 -0.1344
vn -0.2814 0.9553 0.0908
vn 0.2329 0.9661 0.1115
vn 0.0461 0.9981 -0.0403
vn 0.1221 0.9868 0.1068
vn -0.0931 0.9923 -0.0815
vn -0.0000 1.0000 -0.0000
vn -0.0000 0.9880 0.1544
vn -0.0003 1.0000 0.0002
vn 0.1098 0.9893 -0.0961
vn 0.2236 0.9745 -0.0184
vn 0.0900 0.9928 -0.0787
vn 0.0881 0.9931 0.0771
vn 0.0587 0.9969 0.0518
vn 0.0959 0.9954 -0.0002
vn -0.0019 0.9915 0.1298
vn -0.0025 1.0000 0.0022
vn 0.0223 0.9996 0.0195
vn 0.0496 0.9988 -0.0000
vn 0.0440 0.9990 -0.0059
vn 0.0319 0.9995 -0.0046
vn 0.0075 0.9926 0.1216
vn 0.0023 1.0000 0.0020
vn -0.0139 0.9996 0.0248
vn -0.0147 0.9998 0.0129
vn -0.0614 0.9960 -0.0651
vn -0.0304 0.9971 0.0695
vn 0.0866 0.9866 0.1385
vn 0.1826 0.9832 -0.0000
vn -0.0000 0.9999 0.0128
vn -0.1752 0.9768 -0.1229
vn -0.3583 0.9233 -0.1384
vn -0.1738 0.9444 0.2792
vn 0.1409 0.9460 0.2918
vn 0.4034 0.9105 0.0911
vn -0.0077 0.9999 0.0068
vn -0.1104 0.9391 -0.3255
vn 0.1596 0.9715 0.1750
vn 0.2249 0.9421 0.2487
vn -0.1215 0.9595 0.2543
vn -0.3035 0.9506 0.0653
vn 0.1325 0.9844 -0.1155
vn 0.1535 0.9837 -0.0939
vn 0.2347 0.9501 -0.2054
vt 0.875000 0.857143
vt 1.000000 0.857143
vt 1.000000 1.000000
vt 0.875000 1.000000
vt 0.000000 0.857143
vt 0.125000 0.857143
vt 0.125000 1.000000
vt 0.000000 1.000000
vt 0.250000 0.857143
vt 0.250000 1.000000
vt 0.375000 0.857143
vt 0.375000 1.000000
vt 0.500000 0.857143
vt 0.500000 1.000000
vt 0.625000 0.857143
vt 0.625000 1.000000
vt 0.750000 0.857143
vt 0.750000 1.000000
vt 0.750000 0.000000
vt 0.875000 0.000000
vt 0.875000 0.142857
vt 0.750000 0.142857
vt 0.875000 0.285714
vt 0.750000 0.285714
vt 0.875000 0.428571
vt 0.750000 0.428571
vt 0.875000 0.571429
vt 0.750000 0.571429
vt 0.875000 0.714286
vt 0.750000 0.714286
vt 0.625000 0.000000
vt 0.625000 0.142857
vt 0.625000 0.285714
vt 0.625000 0.428571
vt 0.625000 0.571429
vt 0.625000 0.714286
vt 0.500000 0.000000
vt 0.500000 0.142857
vt 0.500000 0.285714
vt 0.500000 0.428571
vt 0.500000 0.571429
vt 0.500000 0.714286
vt 0.375000 0.000000
vt 0.375000 0.142857
vt 0.375000 0.285714
vt 0.375000 0.428571
vt 0.375000 0.571429
vt 0.375000 0.714286
vt 0.250000 0.000000
vt 0.250000 0.142857
vt 0.250000 0.285714
vt 0.250000 0.428571
vt 0.250000 0.571429
vt 0.250000 0.714286
vt 0.125000 0.000000
vt 0.125000 0.142857
vt 0.125000 0.285714
vt 0.125000 0.428571
vt 0.125000 0.571429
vt 0.125000 0.714286
vt 0.000000 0.000000
vt 0.000000 0.142857
vt 0.000000 0.285714
vt 0.000000 0.428571
vt 0.000000 0.571429
vt 0.000000 0.714286
vt 1.000000 0.000000
vt 1.000000 0.142857
vt 1.000000 0.285714
vt 1.000000 0.428571
vt 1.000000 0.571429
vt 1.000000 0.714286
s 0
usemtl Material.002
f 72/1/1 30/2/1 4/3/1 12/4/1
f 19/5/2 36/6/2 18/7/2 3/8/2
f 36/6/3 42/9/3 17/10/3 18/7/3
f 42/9/4 48/11/4 16/12/4 17/10/4
f 48/11/5 54/13/5 15/14/5 16/12/5
f 54/13/6 60/15/6 14/16/6 15/14/6
f 60/15/7 66/17/7 13/18/7 14/16/7
f 66/17/8 72/1/8 12/4/8 13/18/8
f 10/19/9 11/20/9 67/21/9 61/22/9
f 61/22/10 67/21/10 68/23/10 62/24/10
f 62/24/11 68/23/11 69/25/11 63/26/11
f 63/26/12 69/25/12 70/27/12 64/28/12
f 64/28/13 70/27/13 71/29/13 65/30/13
f 65/30/14 71/29/14 72/1/14 66/17/14
f 9/31/15 10/19/15 61/22/15 55/32/15
f 55/32/16 61/22/16 62/24/16 56/33/16
f 56/33/16 62/24/16 63/26/16 57/34/16
f 57/34/10 63/26/10 64/28/10 58/35/10
f 58/35/17 64/28/17 65/30/17 59/36/17
f 59/36/18 65/30/18 66/17/18 60/15/18
f 8/37/15 9/31/15 55/32/15 49/38/15
f 49/38/16 55/32/16 56/33/16 50/39/16
f 50/39/10 56/33/10 57/34/10 51/40/10
f 51/40/10 57/34/10 58/35/10 52/41/10
f 52/41/19 58/35/19 59/36/19 53/42/19
f 53/42/20 59/36/20 60/15/20 54/13/20
f 7/43/21 8/37/21 49/38/21 43/44/21
f 43/44/22 49/38/22 50/39/22 44/45/22
f 44/45/23 50/39/23 51/40/23 45/46/23
f 45/46/24 51/40/24 52/41/24 46/47/24
f 46/47/25 52/41/25 53/42/25 47/48/25
f 47/48/26 53/42/26 54/13/26 48/11/26
f 6/49/27 7/43/27 43/44/27 37/50/27
f 37/50/28 43/44/28 44/45/28 38/51/28
f 38/51/29 44/45/29 45/46/29 39/52/29
f 39/52/30 45/46/30 46/47/30 40/53/30
f 40/53/31 46/47/31 47/48/31 41/54/31
f 41/54/32 47/48/32 48/11/32 42/9/32
f 5/55/33 6/49/33 37/50/33 31/56/33
f 31/56/34 37/50/34 38/51/34 32/57/34
f 32/57/35 38/51/35 39/52/35 33/58/35
f 33/58/36 39/52/36 40/53/36 34/59/36
f 34/59/37 40/53/37 41/54/37 35/60/37
f 35/60/38 41/54/38 42/9/38 36/6/38
f 1/61/39 5/55/39 31/56/39 24/62/39
f 24/62/40 31/56/40 32/57/40 23/63/40
f 23/63/41 32/57/41 33/58/41 22/64/41
f 22/64/42 33/58/42 34/59/42 21/65/42
f 21/65/43 34/59/43 35/60/43 20/66/43
f 20/66/44 35/60/44 36/6/44 19/5/44
f 11/20/9 2/67/9 25/68/9 67/21/9
f 67/21/9 25/68/9 26/69/9 68/23/9
f 68/23/11 26/69/11 27/70/11 69/25/11
f 69/25/45 27/70/45 28/71/45 70/27/45
f 70/27/46 28/71/46 29/72/46 71/29/46
f 71/29/47 29/72/47 30/2/47 72/1/47
