# Blender 4.2.0
# www.blender.org
mtllib mapleLeaf1.mtl
o pPlane1_lambert1_0
v -1.016501 -0.082529 0.195560
v -0.836272 -0.098225 0.195560
v -0.836272 -0.090022 0.006975
v -1.000033 -0.075761 0.006975
v -1.006074 -0.069428 -0.135943
v -0.836272 -0.084216 -0.135943
v -0.836272 -0.090022 -0.279122
v -1.016501 -0.074326 -0.279122
v -0.836272 -0.098225 -0.411787
v -1.020582 -0.082885 -0.411787
v -1.196730 -0.090022 -0.279122
v -1.196730 -0.098225 -0.411787
v -1.196730 -0.084216 -0.135943
v -1.196730 -0.090022 0.006975
v -1.196730 -0.098225 0.195560
vn -0.0046 0.9992 0.0394
vn 0.0867 0.9953 0.0433
vn 0.0867 0.9954 0.0419
vn 0.0036 0.9992 0.0410
vn 0.0009 1.0000 0.0025
vn 0.0868 0.9962 -0.0009
vn 0.0857 0.9950 -0.0521
vn -0.0011 0.9988 -0.0497
vn 0.0846 0.9943 -0.0642
vn -0.0017 0.9980 -0.0630
vn -0.0841 0.9953 -0.0472
vn -0.0866 0.9943 -0.0615
vn -0.0783 0.9969 0.0057
vn -0.0772 0.9962 0.0395
vn -0.0791 0.9962 0.0362
vt 0.500000 1.000000
vt 1.000000 1.000000
vt 1.000000 0.750000
vt 0.500000 0.750000
vt 0.500000 0.500000
vt 1.000000 0.500000
vt 1.000000 0.250000
vt 0.500000 0.250000
vt 1.000000 0.000000
vt 0.500000 0.000000
vt 0.000000 0.250000
vt 0.000000 0.000000
vt 0.000000 0.500000
vt 0.000000 0.750000
vt 0.000000 1.000000
s 1
usemtl lambert1
f 1/1/1 2/2/2 3/3/3
f 1/1/1 3/3/3 4/4/4
f 5/5/5 6/6/6 7/7/7
f 5/5/5 7/7/7 8/8/8
f 8/8/8 7/7/7 9/9/9
f 8/8/8 9/9/9 10/10/10
f 4/4/4 3/3/3 6/6/6
f 4/4/4 6/6/6 5/5/5
f 11/11/11 8/8/8 10/10/10
f 11/11/11 10/10/10 12/12/12
f 13/13/13 5/5/5 8/8/8
f 13/13/13 8/8/8 11/11/11
f 14/14/14 4/4/4 5/5/5
f 14/14/14 5/5/5 13/13/13
f 15/15/15 1/1/1 4/4/4
f 15/15/15 4/4/4 14/14/14
